#!OML:ASF E:/inclinewalkrobotboard/Project1/Captureday1/Session1/subject1.ASF
:FULLY-SPECIFIED
:DEGREES
288
root 0 0 0 -0.3839835597802319 -2.0349763946273014 -3.8885489301894816
lowerback 16.545323007199332 1.0917886103550247 -0.12642285119141994
upperback 0.6471941014842459 1.4289622667894415 0.3229583051627781
thorax -8.65377681850143 0.6761757811058947 0.04990739298205049
lowerneck -7.472859609322877 -3.255005276565254 1.3357469822845234
upperneck -6.173863553837844 -4.218280526393723 1.7074451502373247
head -0.7921247006265917 -2.1909068178745077 0.228817860156649
rclavicle -3.8038075774558003E-16 1.879909395149065E-17
rhumerus 12.110807561535658 0.5449056226301572 -39.415589256308294
rradius 118.86537211554038
rwrist -30.84014716782004
rhand -11.659512307753223 -36.68558017589342
rfingers 7.125019999999964
rthumb 14.422730913123198 -66.0974837187227
lclavicle -3.9062443149184436E-16 -4.512365267556769E-16
lhumerus -43.490457746486 -0.38189078350952677 83.17462641062313
lradius 45.47317312399926
lwrist 1.8631127161891983
lhand -15.418929283802427 -12.728269067930999
lfingers 7.125019999999938
lthumb 10.714514325339227 16.430846851380572
rfemur -2.717436717301479 1.0105129425325137 5.432615089083329
rtibia 8.137329384002243
rfoot -1.530893774290874 -1.324843453272237
rtoes 0.7781466163805957
lfemur -6.48296710741464 -3.5924521804365783 -12.168211285772136
ltibia 27.34316919073143
lfoot -19.391028422098653 8.078088988041022
ltoes -43.66427522006478
289
root 0 0 0 -0.3839360915274186 -2.035044468598499 -3.8886382448121832
lowerback 16.54596971236869 1.0916459122112794 -0.12653200091639372
upperback 0.6467195926248499 1.4287519414729037 0.3228798706957626
thorax -8.654615127079264 0.6760659569737515 0.049880758408974435
lowerneck -7.473013740803767 -3.254880158888449 1.3362562524808186
upperneck -6.178251917832984 -4.218018976592574 1.706943600704157
head -0.7935596877483126 -2.1908466795403725 0.228643653076806
rclavicle -3.8039337271168406E-16 1.8821004813120818E-17
rhumerus 12.111192509725456 0.5454506389014551 -39.415112228422075
rradius 118.86679060712012
rwrist -30.840762754312426
rhand -11.659288768887626 -36.68698855779182
rfingers 7.125019999999965
rthumb 14.42294187319017 -66.09884860626825
lclavicle -3.904208974218223E-16 -4.510920279343644E-16
lhumerus -43.492230931415044 -0.3817982935932972 83.17490670495897
lradius 45.475571237922274
lwrist 1.8621440112260204
lhand -15.416943225818322 -12.734532612012671
lfingers 7.125019999999938
lthumb 10.71640327358439 16.424826153108448
rfemur -2.716741992157779 1.010245858236939 5.431208904244222
rtibia 8.135265736071469
rfoot -1.530488022169311 -1.3244925555133462
rtoes 0.7779406523014218
lfemur -6.482681429951013 -3.5926524756631206 -12.167605876824762
ltibia 27.342597434420238
lfoot -19.39214614893977 8.079058771778302
ltoes -43.66750626092079
290
root 0 0 0 -0.38388884778514787 -2.03511217764706 -3.888727383732323
lowerback 16.546612061686446 1.0915043197264607 -0.12664024214192537
upperback 0.646247237333302 1.4285432460093723 0.3228017512042355
thorax -8.655448813522916 0.6759569578760166 0.04985391825652241
lowerneck -7.4731675127660315 -3.254755954069947 1.3367624277395924
upperneck -6.182614811461455 -4.217759359812243 1.7064454108856772
head -0.7949862741422367 -2.190787025108055 0.22847059052795615
rclavicle -3.8040579139072605E-16 1.8842834391703645E-17
rhumerus 12.111573311783992 0.5459947881159 -39.414638804083324
rradius 118.86820198079292
rwrist -30.84137543173154
rhand -11.659065376931103 -36.68839372950765
rfingers 7.125019999999965
rthumb 14.423152696069288 -66.10021036478607
lclavicle -3.902180894514712E-16 -4.509479975439044E-16
lhumerus -43.49399804289561 -0.3817061355733713 83.17518603853969
lradius 45.477961120490846
lwrist 1.8611786332432518
lhand -15.414964010506223 -12.740774686552552
lfingers 7.125019999999938
lthumb 10.718285731292552 16.418826121084862
rfemur -2.716049559938104 1.0099796382389938 5.429807297809365
rtibia 8.133208859455184
rfoot -1.5300835787007134 -1.3241428091186984
rtoes 0.7777353508185065
lfemur -6.482396640894219 -3.592852125606724 -12.167002467164615
ltibia 27.3420275241177
lfoot -19.39326022697561 8.080025376154273
ltoes -43.670726701125986
291
root 0 0 0 -0.38384181906279957 -2.035179529244582 -3.8888163611196407
lowerback 16.547250150006416 1.0913638160663361 -0.12674758962522814
upperback 0.6457769744950034 1.4283361549952045 0.32272393420166956
thorax -8.656277992205506 0.6758487705328934 0.049826866742436304
lowerneck -7.473320932150955 -3.254632647472471 1.3372655779563498
upperneck -6.186952845573607 -4.217501644410111 1.7059505189427953
head -0.7964046621956689 -2.190727848116065 0.22829865078003403
rclavicle -3.8041801565820946E-16 1.886458617908159E-17
rhumerus 12.111950042786553 0.5465381533267912 -39.414168897616726
rradius 118.86960647338095
rwrist -30.841985303343833
rhand -11.658842099191714 -36.689795906799816
rfingers 7.125019999999965
rthumb 14.423363412635583 -66.10156920345455
lclavicle -3.9001598135321013E-16 -4.508044166374393E-16
lhumerus -43.495759325108935 -0.3816142996580335 83.17546444822676
lradius 45.4803431073316
lwrist 1.860216453226276
lhand -15.412991364653145 -12.746996152668897
lfingers 7.125019999999938
lthumb 10.720161957604748 16.412845927288203
rfemur -2.7153593197282158 1.0097142436230921 5.4284100646891815
rtibia 8.131158452518887
rfoot -1.5296803849483838 -1.3237941631344277
rtoes 0.7775306813556513
lfemur -6.482112695409886 -3.5930511614204335 -12.166400963517615
ltibia 27.34145937011159
lfoot -19.394370828738246 8.080988950729193
ltoes -43.67393703833763
292
root 0 0 0 -0.38379499688603746 -2.0352465315578185 -3.8889051882850576
lowerback 16.54788407499547 1.0912243803034496 -0.12685406092977225
upperback 0.6453087425410704 1.4281306372365439 0.3226464085242211
thorax -8.65710277981915 0.6757413788679996 0.04979960167684305
lowerneck -7.473474008670165 -3.254510220938773 1.3377657769216196
upperneck -6.191266646768536 -4.217245792135126 1.705458854364112
head -0.7978150587060755 -2.1906691397547626 0.2281278093386701
rclavicle -3.8043004732323145E-16 1.888626334535999E-17
rhumerus 12.112322766176334 0.5470808107738012 -39.41370243460081
rradius 118.8710042960021
rwrist -30.842592460614483
rhand -11.658618905104788 -36.69119528823997
rfingers 7.125019999999965
rthumb 14.423574051744447 -66.10292531482868
lclavicle -3.8981454725973815E-16 -4.506612667790317E-16
lhumerus -43.497515017239294 -0.38152277638023535 83.175741969788
lradius 45.48271752725458
lwrist 1.859257345248484
lhand -15.411025020956142 -12.753197852827865
lfingers 7.125019999999938
lthumb 10.722032206021709 16.40688476145219
rfemur -2.7146711694759205 1.0094496349307873 5.42701699712933
rtibia 8.12911421033454
rfoot -1.5292783809413426 -1.323446565944118
rtoes 0.7773266129984466
lfemur -6.4818295502557035 -3.593249613011331 -12.1658012766199
ltibia 27.340892886360876
lfoot -19.395478119484068 8.0819496386835
ltoes -43.677137749073076
293
root 0 0 0 -0.38374837378151827 -2.0353131933932227 -3.888993874260487
lowerback 16.548513937337667 1.0910859882541224 -0.12695967585425239
upperback 0.6448424793815318 1.4279266569470113 0.32256916403784464
thorax -8.657923295482629 0.6756347645748074 0.049772123660597134
lowerneck -7.47362675486401 -3.2543886536447126 1.3382631015288817
upperneck -6.1955568566731 -4.216991759579219 1.7049703395117937
head -0.799217674720107 -2.1906108894357095 0.22795803943895188
rclavicle -3.8044188818762765E-16 1.890786883357048E-17
rhumerus 12.11269153800486 0.5476228315573373 -39.41323934799537
rradius 118.87239564215989
rwrist -30.84319698689743
rhand -11.658395765811225 -36.69259205962254
rfingers 7.125019999999965
rthumb 14.42378464063149 -66.10427887911156
lclavicle -3.896137616823271E-16 -4.505185299445574E-16
lhumerus -43.49926535376277 -0.38143155651040017 83.17601863813198
lradius 45.48508470259166
lwrist 1.858301186073413
lhand -15.40906471755046 -12.759380612357141
lfingers 7.125019999999938
lthumb 10.723896724877717 16.400941829733988
rfemur -2.71398500819954 1.0091857730893556 5.425627889501525
rtibia 8.127075831465374
rfoot -1.5288775071433283 -1.323099966425782
rtoes 0.7771231152590077
lfemur -6.481547164429426 -3.5934475086604607 -12.165203322026805
ltibia 27.340327991652785
lfoot -19.396582255539602 8.082907575436906
ltoes -43.68032928429078
294
root 0 0 0 -0.3837019431063545 -2.035379524022655 -3.889082426627828
lowerback 16.54913983999179 1.090948613761921 -0.12706445553465207
upperback 0.6443781225933655 1.4277241755772687 0.3224921912631069
thorax -8.658739660041636 0.6755289079957469 0.04974443497397574
lowerneck -7.473779185642594 -3.2542679232698353 1.338757630403307
upperneck -6.199824126779987 -4.216739500312057 1.7044848922807603
head -0.8006127240114029 -2.1905530855638298 0.227789312898942
rclavicle -3.804535401016865E-16 1.8929405453601926E-17
rhumerus 12.113056411275721 0.5481642833062281 -39.41277957419935
rradius 118.8737806959429
rwrist -30.843798961183932
rhand -11.658172653750725 -36.69398639834776
rfingers 7.125019999999965
rthumb 14.42399520529947 -66.10563006839385
lclavicle -3.8941359950521016E-16 -4.503761884237992E-16
lhumerus -43.50101056473433 -0.38134063092464565 83.1762944875454
lradius 45.48744494945258
lwrist 1.8573478547080056
lhand -15.407110197539517 -12.765545240939808
lfingers 7.125019999999938
lthumb 10.725755757817513 16.395016353372696
rfemur -2.7133007377290816 1.0089226201450914 5.424242542076767
rtibia 8.125043023257122
rfoot -1.5284777056389158 -1.3227543148706258
rtoes 0.7769201586550474
lfemur -6.48126549935459 -3.5936448749644643 -12.164607020062398
ltibia 27.339764609789082
lfoot -19.39768338428322 8.083862888676443
ltoes -43.68351206954635
295
root 0 0 0 -0.3836556987960381 -2.0354455329557815 -3.8891708523725095
lowerback 16.549761886914528 1.090812230060234 -0.12716842148155205
upperback 0.6439156097529194 1.4275231537537556 0.32241548100989403
thorax -8.659551994927476 0.6754237890602808 0.049716538451099024
lowerneck -7.473931317536666 -3.2541480071755924 1.3392494423769552
upperneck -6.204069111106534 -4.216488967104489 1.7040024290565463
head -0.8020004208807787 -2.190495716310074 0.2276216010706411
rclavicle -3.8046500500429087E-16 1.8950875959174232E-17
rhumerus 12.113417439522784 0.5487052315764256 -39.412323049803774
rradius 118.87515963880787
rwrist -30.844398461212766
rhand -11.657949542318875 -36.6953784770701
rfingers 7.125019999999965
rthumb 14.42420577084519 -66.10697905017864
lclavicle -3.8921403596140523E-16 -4.502342247385178E-16
lhumerus -43.50275087607829 -0.3812499904697262 83.17656955189351
lradius 45.48979857796463
lwrist 1.8563972319830198
lhand -15.405161208550684 -12.77169253401567
lfingers 7.125019999999938
lthumb 10.727609544245126 16.389107567399023
rfemur -2.7126182637528604 1.0086601397058816 5.422860763292377
rtibia 8.123015504965569
rfoot -1.5280789208740924 -1.322409563541866
rtoes 0.7767177150365727
lfemur -6.480984518686168 -3.5938417370273434 -12.164012295137907
ltibia 27.339202669016583
lfoot -19.39878164534915 8.084815699428795
ltoes -43.68668650853117
